<svg xmlns="http://www.w3.org/2000/svg" version="1.1" width="3300" height="2000"><g id="Notes"><style>
    text {
      font-family: monospace;
      text-anchor: middle;
    }
    text.emphasis {
      font-weight:bold;
    }
    text.lanchor {
      text-anchor: start;
    }
  </style><rect height="2200" id="artboard" fill="white" width="3300" x="0" y="0"/><line id="" style="fill:none;stroke:black;stroke-width:0.5;" x1="263" x2="3036" y1="292" y2="292"/><text class="lanchor emphasis" transform="matrix(1 0 0 1 263 322)">Weight/Scale Variations</text><text transform="matrix(1 0 0 1 559.711 322)">Ultralight</text><text transform="matrix(1 0 0 1 856.422 322)">Thin</text><text transform="matrix(1 0 0 1 1153.13 322)">Light</text><text transform="matrix(1 0 0 1 1449.84 322)">Regular</text><text transform="matrix(1 0 0 1 1746.56 322)">Medium</text><text transform="matrix(1 0 0 1 2043.27 322)">Semibold</text><text transform="matrix(1 0 0 1 2339.98 322)">Bold</text><text transform="matrix(1 0 0 1 2636.69 322)">Heavy</text><text transform="matrix(1 0 0 1 2933.4 322)">Black</text><text id="template-version" style="text-anchor: end;" transform="matrix(1 0 0 1 3036 1933)">Template v.1.0</text><text class="lanchor" transform="matrix(1 0 0 1 263 726)">Small</text><text class="lanchor" transform="matrix(1 0 0 1 263 1156)">Medium</text><text class="lanchor" transform="matrix(1 0 0 1 263 1586)">Large</text></g><g id="Guides"><g id="H-reference" style="fill:#27AAE1;stroke:none;" transform="matrix(1 0 0 1 339 696)"><path d="M 54.9316 0 L 57.666 0 L 30.5664 -70.459 L 28.0762 -70.459 L 0.976562 0 L 3.66211 0 L 12.9395 -24.4629 L 45.7031 -24.4629 Z M 29.1992 -67.0898 L 29.4434 -67.0898 L 44.8242 -26.709 L 13.8184 -26.709 Z"/></g><line id="Baseline-S" style="fill:none;stroke:#27AAE1;opacity:1;stroke-width:0.577;" x1="263" x2="3036" y1="696" y2="696"/><line id="Capline-S" style="fill:none;stroke:#27AAE1;opacity:1;stroke-width:0.577;" x1="263" x2="3036" y1="625.541" y2="625.541"/><g id="H-reference" style="fill:#27AAE1;stroke:none;" transform="matrix(1 0 0 1 339 1126)"><path d="M 54.9316 0 L 57.666 0 L 30.5664 -70.459 L 28.0762 -70.459 L 0.976562 0 L 3.66211 0 L 12.9395 -24.4629 L 45.7031 -24.4629 Z M 29.1992 -67.0898 L 29.4434 -67.0898 L 44.8242 -26.709 L 13.8184 -26.709 Z"/></g><line id="Baseline-M" style="fill:none;stroke:#27AAE1;opacity:1;stroke-width:0.577;" x1="263" x2="3036" y1="1126" y2="1126"/><line id="Capline-M" style="fill:none;stroke:#27AAE1;opacity:1;stroke-width:0.577;" x1="263" x2="3036" y1="1055.54" y2="1055.54"/><g id="H-reference" style="fill:#27AAE1;stroke:none;" transform="matrix(1 0 0 1 339 1556)"><path d="M 54.9316 0 L 57.666 0 L 30.5664 -70.459 L 28.0762 -70.459 L 0.976562 0 L 3.66211 0 L 12.9395 -24.4629 L 45.7031 -24.4629 Z M 29.1992 -67.0898 L 29.4434 -67.0898 L 44.8242 -26.709 L 13.8184 -26.709 Z"/></g><line id="Baseline-L" style="fill:none;stroke:#27AAE1;opacity:1;stroke-width:0.577;" x1="263" x2="3036" y1="1556" y2="1556"/><line id="Capline-L" style="fill:none;stroke:#27AAE1;opacity:1;stroke-width:0.577;" x1="263" x2="3036" y1="1485.54" y2="1485.54"/><rect height="119.336" id="left-margin" style="fill:darkred;stroke:none;opacity:0.4;" width="12.4512" x="1394.06" y="1030.79"/><rect height="119.336" id="right-margin" style="fill:darkgreen;stroke:none;opacity:0.4;" width="12.4512" x="1502.5112" y="1030.79"/><rect x="1406.5112" y="1045" width="96" height="96" fill="none" stroke="blue" stroke-dasharray="5"/><rect x="1394.06" y="1030.79" width="120.9024" height="119.336" fill="none" stroke="blue"/></g><g id="Symbols"><g id="Bold-L" transform="matrix(1 0 0 1 2266 1556)"><path d="M77.4 33.301 Q63.21 33.301 50.635 27.966 Q38.059 22.632 28.799 13.291 Q19.538 3.95 14.204 -8.523 Q8.869 -20.995 8.869 -35.208 Q8.869 -49.581 14.204 -62.076 Q19.538 -74.571 28.823 -83.84 Q38.107 -93.109 50.659 -98.516 Q63.21 -103.922 77.4 -103.922 Q91.59 -103.922 104.06 -98.528 Q116.531 -93.134 125.896 -83.886 Q135.261 -74.639 140.677 -62.137 Q146.093 -49.636 146.093 -35.23 Q146.093 -20.995 140.686 -8.503 Q135.279 3.989 125.929 13.31 Q116.58 22.632 104.085 27.966 Q91.59 33.301 77.4 33.301 Z M77.399 18.144 Q99.653 18.144 115.213 2.611 Q130.774 -12.921 130.774 -35.202 Q130.774 -57.644 115.215 -73.124 Q99.655 -88.604 77.482 -88.604 Q55.148 -88.604 39.587 -73.152 Q24.026 -57.7 24.026 -35.258 Q24.026 -12.977 39.566 2.583 Q55.105 18.144 77.399 18.144 Z M88.043 -42.809  89.816 -43.776 Q90.623 -40.551 93.136 -38.455 Q95.649 -36.359 99.008 -36.359 Q103.039 -36.359 105.861 -39.181 Q108.683 -42.002 108.683 -46.034 Q108.683 -48.13 107.876 -49.904 Q107.07 -51.677 105.619 -53.29 L109.65 -55.386 L105.619 -62.481 L84.011 -50.065 L88.043 -42.809 Z M66.758 -42.809  70.789 -50.065  49.181 -62.481  45.15 -55.386  49.343 -53.29 Q47.73 -51.677 46.924 -49.904 Q46.117 -48.13 46.117 -46.034 Q46.117 -42.002 48.939 -39.181 Q51.761 -36.359 55.793 -36.359 Q59.153 -36.359 61.668 -38.455 Q64.183 -40.551 65.145 -43.776 L66.758 -42.809 Z M77.33 -29.747 Q65.973 -29.747 57.658 -21.846 Q49.343 -13.945 45.634 -2.98 H109.166 Q105.457 -13.945 97.073 -21.846 Q88.688 -29.747 77.33 -29.747 Z"/></g><g id="Semibold-L" transform="matrix(1 0 0 1 1970.27 1556)"><path d="M77.4 31.549 Q63.561 31.549 51.335 26.325 Q39.109 21.101 30.089 12.001 Q21.069 2.9 15.845 -9.268 Q10.621 -21.436 10.621 -35.217 Q10.621 -49.161 15.845 -61.341 Q21.069 -73.521 30.102 -82.546 Q39.136 -91.571 51.348 -96.835 Q63.561 -102.1 77.4 -102.1 Q91.239 -102.1 103.371 -96.842 Q115.502 -91.585 124.616 -82.572 Q133.731 -73.559 139 -61.376 Q144.27 -49.192 144.27 -35.23 Q144.27 -21.436 139.005 -9.257 Q133.741 2.922 124.635 12.012 Q115.53 21.101 103.385 26.325 Q91.239 31.549 77.4 31.549 Z M77.399 18.775 Q99.863 18.775 115.634 3.02 Q131.405 -12.735 131.405 -35.214 Q131.405 -57.854 115.635 -73.544 Q99.864 -89.235 77.446 -89.235 Q54.867 -89.235 39.131 -73.56 Q23.395 -57.886 23.395 -35.246 Q23.395 -12.767 39.119 3.004 Q54.843 18.775 77.399 18.775 Z M88.533 -43.089  90.517 -44.197 Q91.183 -40.972 93.655 -38.876 Q96.128 -36.779 99.428 -36.779 Q103.319 -36.779 106.001 -39.461 Q108.683 -42.143 108.683 -46.034 Q108.683 -48.13 107.841 -49.904 Q107 -51.677 105.478 -53.15 L109.65 -55.386 L105.969 -61.85 L84.852 -49.714 L88.533 -43.089 Z M66.267 -43.089  69.948 -49.714  48.831 -61.85  45.15 -55.386  49.413 -53.15 Q47.8 -51.677 46.959 -49.904 Q46.117 -48.13 46.117 -46.034 Q46.117 -42.143 48.799 -39.461 Q51.481 -36.779 55.372 -36.779 Q58.674 -36.779 61.147 -38.876 Q63.62 -40.972 64.374 -44.197 L66.267 -43.089 Z M77.361 -29.117 Q66.104 -29.117 57.758 -21.461 Q49.413 -13.805 45.493 -2.98 H109.307 Q105.317 -13.735 96.967 -21.426 Q88.617 -29.117 77.361 -29.117 Z"/></g><g id="Medium-L" transform="matrix(1 0 0 1 1674.31 1556)"><path d="M77.4 30.234 Q63.823 30.234 51.86 25.094 Q39.896 19.953 31.057 11.033 Q22.217 2.112 17.076 -9.827 Q11.936 -21.765 11.936 -35.225 Q11.936 -48.845 17.076 -60.789 Q22.217 -72.734 31.062 -81.576 Q39.908 -90.417 51.866 -95.575 Q63.823 -100.733 77.4 -100.733 Q90.977 -100.733 102.854 -95.578 Q114.731 -90.423 123.657 -81.586 Q132.583 -72.75 137.743 -60.804 Q142.903 -48.858 142.903 -35.23 Q142.903 -21.765 137.745 -9.822 Q132.587 2.122 123.665 11.037 Q114.742 19.953 102.859 25.094 Q90.977 30.234 77.4 30.234 Z M77.4 19.248 Q100.021 19.248 115.949 3.326 Q131.878 -12.596 131.878 -35.223 Q131.878 -58.012 115.95 -73.86 Q100.021 -89.708 77.42 -89.708 Q54.657 -89.708 38.789 -73.867 Q22.922 -58.025 22.922 -35.237 Q22.922 -12.609 38.784 3.319 Q54.646 19.248 77.4 19.248 Z M88.901 -43.299  91.043 -44.512 Q91.604 -41.287 94.045 -39.191 Q96.487 -37.095 99.744 -37.095 Q103.529 -37.095 106.106 -39.671 Q108.683 -42.248 108.683 -46.034 Q108.683 -48.13 107.815 -49.904 Q106.947 -51.677 105.373 -53.045 L109.65 -55.386 L106.232 -61.377 L85.483 -49.452 L88.901 -43.299 Z M65.899 -43.299  69.317 -49.452  48.568 -61.377  45.15 -55.386  49.465 -53.045 Q47.853 -51.677 46.985 -49.904 Q46.117 -48.13 46.117 -46.034 Q46.117 -42.248 48.694 -39.671 Q51.271 -37.095 55.056 -37.095 Q58.314 -37.095 60.756 -39.191 Q63.197 -41.287 63.795 -44.512 L65.899 -43.299 Z M77.383 -28.643 Q66.202 -28.643 57.834 -21.171 Q49.465 -13.7 45.388 -2.98 H109.412 Q105.212 -13.577 96.889 -21.11 Q88.565 -28.643 77.383 -28.643 Z"/></g><g id="Regular-L" transform="matrix(1 0 0 1 1378.56 1556)"><path d="M77.4 29.27 Q64.016 29.27 52.245 24.191 Q40.474 19.111 31.766 10.323 Q23.059 1.535 17.979 -10.236 Q12.9 -22.007 12.9 -35.23 Q12.9 -48.614 17.979 -60.385 Q23.059 -72.156 31.766 -80.864 Q40.474 -89.571 52.245 -94.651 Q64.016 -99.73 77.4 -99.73 Q90.784 -99.73 102.474 -94.651 Q114.165 -89.571 122.953 -80.864 Q131.741 -72.156 136.821 -60.385 Q141.9 -48.614 141.9 -35.23 Q141.9 -22.007 136.821 -10.236 Q131.741 1.535 122.953 10.323 Q114.165 19.111 102.474 24.191 Q90.784 29.27 77.4 29.27 Z M77.4 19.595 Q100.136 19.595 116.181 3.551 Q132.225 -12.494 132.225 -35.23 Q132.225 -58.127 116.181 -74.091 Q100.136 -90.055 77.4 -90.055 Q54.503 -90.055 38.539 -74.091 Q22.575 -58.127 22.575 -35.23 Q22.575 -12.494 38.539 3.551 Q54.503 19.595 77.4 19.595 Z M89.171 -43.454  91.429 -44.744 Q91.913 -41.519 94.331 -39.422 Q96.75 -37.326 99.975 -37.326 Q103.684 -37.326 106.183 -39.826 Q108.683 -42.325 108.683 -46.034 Q108.683 -48.13 107.796 -49.904 Q106.909 -51.677 105.296 -52.967 L109.65 -55.386 L106.425 -61.03 L85.946 -49.259 L89.171 -43.454 Z M65.629 -43.454  68.854 -49.259  48.375 -61.03  45.15 -55.386  49.504 -52.967 Q47.891 -51.677 47.004 -49.904 Q46.117 -48.13 46.117 -46.034 Q46.117 -42.325 48.617 -39.826 Q51.116 -37.326 54.825 -37.326 Q58.05 -37.326 60.469 -39.422 Q62.888 -41.519 63.371 -44.744 L65.629 -43.454 Z M77.4 -28.296 Q66.274 -28.296 57.889 -20.959 Q49.504 -13.622 45.311 -2.98 H109.489 Q105.135 -13.461 96.831 -20.879 Q88.526 -28.296 77.4 -28.296 Z"/></g><g id="Light-L" transform="matrix(1 0 0 1 1082.77 1556)"><path d="M77.411 26.045 Q64.698 26.045 53.513 21.22 Q42.327 16.396 34.053 8.045 Q25.779 -0.307 20.952 -11.456 Q16.125 -22.606 16.125 -35.188 Q16.125 -47.932 20.95 -59.117 Q25.774 -70.303 34.045 -78.577 Q42.316 -86.851 53.496 -91.678 Q64.677 -96.505 77.389 -96.505 Q90.102 -96.505 101.206 -91.68 Q112.312 -86.856 120.666 -78.585 Q129.021 -70.314 133.848 -59.134 Q138.675 -47.953 138.675 -35.241 Q138.675 -22.628 133.85 -11.473 Q129.026 -0.318 120.675 8.036 Q112.323 16.391 101.223 21.218 Q90.123 26.045 77.411 26.045 Z M77.392 18.727 Q99.764 18.727 115.56 2.938 Q131.357 -12.85 131.357 -35.222 Q131.357 -57.755 115.568 -73.471 Q99.78 -89.187 77.408 -89.187 Q54.875 -89.187 39.159 -73.479 Q23.443 -57.771 23.443 -35.238 Q23.443 -12.866 39.151 2.93 Q54.859 18.727 77.392 18.727 Z M89.233 -43.95  91.801 -45.426 Q91.861 -42.325 94.057 -40.167 Q96.254 -38.008 99.337 -38.008 Q102.64 -38.008 104.855 -40.239 Q107.07 -42.47 107.07 -45.739 Q107.07 -47.758 106.09 -49.47 Q105.11 -51.181 103.374 -52.223 L108.223 -54.952 L105.371 -59.976 L86.38 -49.073 L89.233 -43.95 Z M65.567 -43.95  68.42 -49.073  49.429 -59.976  46.577 -54.952  51.426 -52.223 Q49.69 -51.181 48.71 -49.47 Q47.73 -47.758 47.73 -45.739 Q47.73 -42.47 49.945 -40.239 Q52.16 -38.008 55.463 -38.008 Q58.546 -38.008 60.743 -40.167 Q62.939 -42.325 62.999 -45.426 L65.567 -43.95 Z M77.388 -28.42 Q66.966 -28.42 59.103 -21.642 Q51.24 -14.863 47.358 -4.965 H107.442 Q103.46 -14.764 95.635 -21.592 Q87.809 -28.42 77.388 -28.42 Z"/></g><g id="Thin-L" transform="matrix(1 0 0 1 787.282 1556)"><path d="M77.422 22.82 Q65.381 22.82 54.78 18.25 Q44.18 13.681 36.339 5.766 Q28.498 -2.148 23.924 -12.677 Q19.35 -23.205 19.35 -35.146 Q19.35 -47.249 23.92 -57.85 Q28.489 -68.45 36.323 -76.291 Q44.157 -84.132 54.747 -88.706 Q65.338 -93.28 77.378 -93.28 Q89.419 -93.28 99.939 -88.71 Q110.458 -84.141 118.38 -76.307 Q126.302 -68.473 130.876 -57.883 Q135.45 -47.292 135.45 -35.252 Q135.45 -23.248 130.88 -12.71 Q126.311 -2.172 118.396 5.75 Q110.482 13.672 99.972 18.246 Q89.462 22.82 77.422 22.82 Z M77.384 17.858 Q99.392 17.858 114.94 2.326 Q130.488 -13.206 130.488 -35.214 Q130.488 -57.383 114.956 -72.851 Q99.424 -88.318 77.416 -88.318 Q55.247 -88.318 39.779 -72.867 Q24.312 -57.415 24.312 -35.246 Q24.312 -13.238 39.763 2.31 Q55.215 17.858 77.384 17.858 Z M89.295 -44.446  92.173 -46.108 Q91.809 -43.131 93.783 -40.911 Q95.758 -38.691 98.699 -38.691 Q101.596 -38.691 103.527 -40.653 Q105.457 -42.614 105.457 -45.445 Q105.457 -47.386 104.385 -49.035 Q103.312 -50.685 101.451 -51.479 L106.797 -54.518 L104.316 -58.921 L86.815 -48.887 L89.295 -44.446 Z M65.505 -44.446  67.985 -48.887  50.484 -58.921  48.003 -54.518  53.349 -51.479 Q51.488 -50.685 50.415 -49.035 Q49.343 -47.386 49.343 -45.445 Q49.343 -42.614 51.273 -40.653 Q53.204 -38.691 56.101 -38.691 Q59.042 -38.691 61.017 -40.911 Q62.991 -43.131 62.627 -46.108 L65.505 -44.446 Z M77.375 -28.544 Q67.658 -28.544 60.317 -22.324 Q52.977 -16.103 49.404 -6.949 H105.396 Q101.786 -16.066 94.439 -22.305 Q87.092 -28.544 77.375 -28.544 Z"/></g><g id="Ultralight-L" transform="matrix(1 0 0 1 491.205 1556)"><path d="M77.428 20.885 Q65.79 20.885 55.541 16.468 Q45.292 12.051 37.711 4.399 Q30.13 -3.253 25.707 -13.409 Q21.285 -23.564 21.285 -35.121 Q21.285 -46.84 25.702 -57.089 Q30.119 -67.338 37.69 -74.919 Q45.262 -82.5 55.498 -86.923 Q65.734 -91.345 77.372 -91.345 Q89.01 -91.345 99.178 -86.928 Q109.346 -82.511 117.008 -74.94 Q124.67 -67.368 129.093 -57.132 Q133.515 -46.896 133.515 -35.258 Q133.515 -23.62 129.098 -13.452 Q124.681 -3.284 117.029 4.378 Q109.377 12.04 99.221 16.463 Q89.066 20.885 77.428 20.885 Z M77.379 17.338 Q99.169 17.338 114.568 1.959 Q129.968 -13.42 129.968 -35.209 Q129.968 -57.16 114.589 -72.479 Q99.21 -87.797 77.421 -87.797 Q55.47 -87.797 40.151 -72.499 Q24.832 -57.201 24.832 -35.251 Q24.832 -13.461 40.131 1.938 Q55.429 17.338 77.379 17.338 Z M89.332 -44.744  92.396 -46.517 Q91.778 -43.615 93.619 -41.357 Q95.46 -39.1 98.316 -39.1 Q100.969 -39.1 102.73 -40.901 Q104.49 -42.701 104.49 -45.268 Q104.49 -47.162 103.361 -48.775 Q102.233 -50.387 100.297 -51.032 L105.941 -54.257 L103.684 -58.289 L87.075 -48.775 L89.332 -44.744 Z M65.468 -44.744  67.725 -48.775  51.116 -58.289  48.859 -54.257  54.503 -51.032 Q52.568 -50.387 51.439 -48.775 Q50.31 -47.162 50.31 -45.268 Q50.31 -42.701 52.07 -40.901 Q53.831 -39.1 56.484 -39.1 Q59.34 -39.1 61.181 -41.357 Q63.022 -43.615 62.404 -46.517 L65.468 -44.744 Z M77.368 -28.619 Q68.073 -28.619 61.046 -22.733 Q54.019 -16.847 50.633 -8.14 H104.168 Q100.781 -16.847 93.722 -22.733 Q86.662 -28.619 77.368 -28.619 Z"/></g><g id="Bold-M" transform="matrix(1 0 0 1 2281.8 1126)"><path d="M60 19.02 Q48.625 19.02 38.752 14.76 Q28.878 10.499 21.575 3.196 Q14.271 -4.108 10.011 -13.982 Q5.75 -23.855 5.75 -35.23 Q5.75 -46.605 10.011 -56.478 Q14.271 -66.352 21.575 -73.655 Q28.878 -80.959 38.752 -85.219 Q48.625 -89.48 60 -89.48 Q71.375 -89.48 81.248 -85.219 Q91.122 -80.959 98.425 -73.655 Q105.729 -66.352 109.99 -56.478 Q114.25 -46.605 114.25 -35.23 Q114.25 -23.855 109.99 -13.982 Q105.729 -4.108 98.425 3.196 Q91.122 10.499 81.248 14.76 Q71.375 19.02 60 19.02 Z M59.999 3.27 Q76 3.27 87.25 -7.917 Q98.5 -19.105 98.5 -35.23 Q98.5 -51.355 87.251 -62.542 Q76.002 -73.73 60.001 -73.73 Q44 -73.73 32.75 -62.542 Q21.5 -51.355 21.5 -35.23 Q21.5 -19.105 32.749 -7.917 Q43.998 3.27 59.999 3.27 Z M66.375 -40.105  68.25 -41.23 Q68.875 -38.23 71.11 -36.23 Q73.345 -34.23 76.5 -34.23 Q80.125 -34.23 82.562 -36.667 Q85 -39.105 85 -42.73 Q85 -44.56 84.188 -46.208 Q83.375 -47.855 82 -49.23 L85 -50.855 L81.625 -56.73 L63 -46.105 L66.375 -40.105 Z M53.625 -40.105  57 -46.105  38.375 -56.73  35 -50.855  38 -49.23 Q36.625 -47.855 35.812 -46.208 Q35 -44.56 35 -42.73 Q35 -39.105 37.438 -36.667 Q39.875 -34.23 43.5 -34.23 Q46.655 -34.23 48.89 -36.23 Q51.125 -38.23 51.75 -41.23 L53.625 -40.105 Z M60 -31.73 Q50.875 -31.73 44.125 -25.48 Q37.375 -19.23 35.25 -10.23 H84.75 Q82.625 -19.355 75.875 -25.542 Q69.125 -31.73 60 -31.73 Z"/></g><g id="Semibold-M" transform="matrix(1 0 0 1 1985.97 1126)"><path d="M60 17.172 Q49.06 17.172 39.512 13.052 Q29.964 8.932 22.901 1.869 Q15.838 -5.194 11.718 -14.742 Q7.598 -24.29 7.598 -35.23 Q7.598 -46.17 11.718 -55.718 Q15.838 -65.266 22.901 -72.329 Q29.964 -79.392 39.512 -83.512 Q49.06 -87.632 60 -87.632 Q70.94 -87.632 80.488 -83.512 Q90.036 -79.392 97.099 -72.329 Q104.162 -65.266 108.282 -55.718 Q112.402 -46.17 112.402 -35.23 Q112.402 -24.29 108.282 -14.742 Q104.162 -5.194 97.099 1.869 Q90.036 8.932 80.488 13.052 Q70.94 17.172 60 17.172 Z M59.999 3.922 Q76.272 3.922 87.712 -7.483 Q99.152 -18.888 99.152 -35.23 Q99.152 -51.572 87.713 -62.977 Q76.273 -74.382 60.001 -74.382 Q43.728 -74.382 32.288 -62.977 Q20.848 -51.572 20.848 -35.23 Q20.848 -18.888 32.288 -7.483 Q43.727 3.922 59.999 3.922 Z M66.864 -40.377  69.011 -41.665 Q69.473 -38.665 71.66 -36.665 Q73.847 -34.665 76.935 -34.665 Q80.342 -34.665 82.671 -36.994 Q85 -39.322 85 -42.73 Q85 -44.58 84.16 -46.244 Q83.321 -47.909 81.891 -49.121 L85 -50.855 L82.005 -56.078 L63.87 -45.725 L66.864 -40.377 Z M53.136 -40.377  56.13 -45.725  37.995 -56.078  35 -50.855  38.109 -49.121 Q36.679 -47.909 35.84 -46.244 Q35 -44.58 35 -42.73 Q35 -39.322 37.329 -36.994 Q39.658 -34.665 43.065 -34.665 Q46.153 -34.665 48.34 -36.665 Q50.527 -38.665 50.989 -41.665 L53.136 -40.377 Z M60 -31.078 Q50.984 -31.078 44.234 -25.072 Q37.484 -19.067 35.087 -10.23 H84.913 Q82.516 -19.138 75.766 -25.108 Q69.016 -31.078 60 -31.078 Z"/></g><g id="Medium-M" transform="matrix(1 0 0 1 1689.91 1126)"><path d="M60 15.786 Q49.386 15.786 40.082 11.772 Q30.778 7.757 23.895 0.875 Q17.013 -6.008 12.998 -15.312 Q8.984 -24.616 8.984 -35.23 Q8.984 -45.844 12.998 -55.148 Q17.013 -64.452 23.895 -71.334 Q30.778 -78.217 40.082 -82.232 Q49.386 -86.246 60 -86.246 Q70.614 -86.246 79.918 -82.232 Q89.222 -78.217 96.105 -71.334 Q102.987 -64.452 107.002 -55.148 Q111.016 -45.844 111.016 -35.23 Q111.016 -24.616 107.002 -15.312 Q102.987 -6.008 96.105 0.875 Q89.222 7.757 79.918 11.772 Q70.614 15.786 60 15.786 Z M60 4.411 Q76.475 4.411 88.058 -7.157 Q99.641 -18.725 99.641 -35.23 Q99.641 -51.735 88.059 -63.303 Q76.476 -74.871 60 -74.871 Q43.525 -74.871 31.942 -63.303 Q20.359 -51.735 20.359 -35.23 Q20.359 -18.725 31.941 -7.157 Q43.524 4.411 60 4.411 Z M67.231 -40.58  69.582 -41.991 Q69.921 -38.991 72.073 -36.991 Q74.224 -34.991 77.261 -34.991 Q80.505 -34.991 82.753 -37.238 Q85 -39.485 85 -42.73 Q85 -44.594 84.14 -46.272 Q83.28 -47.95 81.81 -49.04 L85 -50.855 L82.291 -55.589 L64.522 -45.439 L67.231 -40.58 Z M52.769 -40.58  55.478 -45.439  37.709 -55.589  35 -50.855  38.19 -49.04 Q36.72 -47.95 35.86 -46.272 Q35 -44.594 35 -42.73 Q35 -39.485 37.247 -37.238 Q39.495 -34.991 42.739 -34.991 Q45.776 -34.991 47.928 -36.991 Q50.079 -38.991 50.419 -41.991 L52.769 -40.58 Z M60 -30.589 Q51.065 -30.589 44.315 -24.767 Q37.565 -18.945 34.965 -10.23 H85.035 Q82.435 -18.975 75.685 -24.782 Q68.935 -30.589 60 -30.589 Z"/></g><g id="Regular-M" transform="matrix(1 0 0 1 1394.06 1126)"><path d="M60 14.77 Q49.625 14.77 40.5 10.833 Q31.375 6.895 24.625 0.145 Q17.875 -6.605 13.938 -15.73 Q10 -24.855 10 -35.23 Q10 -45.605 13.938 -54.73 Q17.875 -63.855 24.625 -70.605 Q31.375 -77.355 40.5 -81.292 Q49.625 -85.23 60 -85.23 Q70.375 -85.23 79.5 -81.292 Q88.625 -77.355 95.375 -70.605 Q102.125 -63.855 106.062 -54.73 Q110 -45.605 110 -35.23 Q110 -24.855 106.062 -15.73 Q102.125 -6.605 95.375 0.145 Q88.625 6.895 79.5 10.833 Q70.375 14.77 60 14.77 Z M60 4.77 Q76.625 4.77 88.312 -6.917 Q100 -18.605 100 -35.23 Q100 -51.855 88.312 -63.542 Q76.625 -75.23 60 -75.23 Q43.375 -75.23 31.688 -63.542 Q20 -51.855 20 -35.23 Q20 -18.605 31.688 -6.917 Q43.375 4.77 60 4.77 Z M67.5 -40.73  70 -42.23 Q70.25 -39.23 72.375 -37.23 Q74.5 -35.23 77.5 -35.23 Q80.625 -35.23 82.812 -37.417 Q85 -39.605 85 -42.73 Q85 -44.605 84.125 -46.292 Q83.25 -47.98 81.75 -48.98 L85 -50.855 L82.5 -55.23 L65 -45.23 L67.5 -40.73 Z M52.5 -40.73  55 -45.23  37.5 -55.23  35 -50.855  38.25 -48.98 Q36.75 -47.98 35.875 -46.292 Q35 -44.605 35 -42.73 Q35 -39.605 37.188 -37.417 Q39.375 -35.23 42.5 -35.23 Q45.5 -35.23 47.625 -37.23 Q49.75 -39.23 50 -42.23 L52.5 -40.73 Z M60 -30.23 Q51.125 -30.23 44.375 -24.542 Q37.625 -18.855 34.875 -10.23 H85.125 Q82.375 -18.855 75.625 -24.542 Q68.875 -30.23 60 -30.23 Z"/></g><g id="Light-M" transform="matrix(1 0 0 1 1098.18 1126)"><path d="M60.008 12.27 Q50.154 12.27 41.483 8.53 Q32.812 4.79 26.398 -1.621 Q19.983 -8.033 16.242 -16.7 Q12.5 -25.367 12.5 -35.222 Q12.5 -45.076 16.24 -53.747 Q19.98 -62.418 26.391 -68.832 Q32.803 -75.247 41.47 -78.988 Q50.137 -82.73 59.992 -82.73 Q69.846 -82.73 78.517 -78.99 Q87.188 -75.25 93.602 -68.839 Q100.017 -62.427 103.758 -53.76 Q107.5 -45.093 107.5 -35.238 Q107.5 -25.384 103.76 -16.713 Q100.02 -8.042 93.609 -1.628 Q87.197 4.787 78.53 8.528 Q69.863 12.27 60.008 12.27 Z M60 4.77 Q76.625 4.77 88.312 -6.917 Q100 -18.605 100 -35.23 Q100 -51.855 88.312 -63.542 Q76.625 -75.23 60 -75.23 Q43.375 -75.23 31.688 -63.542 Q20 -51.855 20 -35.23 Q20 -18.605 31.688 -6.917 Q43.375 4.77 60 4.77 Z M67.981 -41.355  70.529 -42.855 Q70.442 -40.095 72.327 -38.143 Q74.212 -36.192 77.019 -36.192 Q79.743 -36.192 81.65 -38.099 Q83.558 -40.006 83.558 -42.73 Q83.558 -44.509 82.659 -46.052 Q81.76 -47.595 80.211 -48.403 L83.894 -50.518 L81.683 -54.413 L65.769 -45.326 L67.981 -41.355 Z M52.019 -41.355  54.231 -45.326  38.317 -54.413  36.106 -50.518  39.789 -48.403 Q38.24 -47.595 37.342 -46.052 Q36.442 -44.509 36.442 -42.73 Q36.442 -40.006 38.349 -38.099 Q40.257 -36.192 42.981 -36.192 Q45.788 -36.192 47.673 -38.143 Q49.558 -40.095 49.471 -42.855 L52.019 -41.355 Z M60.011 -30.23 Q51.75 -30.23 45.457 -24.975 Q39.164 -19.72 36.51 -11.769 H83.49 Q80.836 -19.72 74.554 -24.975 Q68.271 -30.23 60.011 -30.23 Z"/></g><g id="Thin-M" transform="matrix(1 0 0 1 802.565 1126)"><path d="M60.017 9.77 Q50.683 9.77 42.465 6.228 Q34.248 2.685 28.17 -3.388 Q22.091 -9.46 18.546 -17.67 Q15 -25.879 15 -35.213 Q15 -44.547 18.542 -52.764 Q22.085 -60.982 28.158 -67.06 Q34.23 -73.138 42.44 -76.684 Q50.649 -80.23 59.983 -80.23 Q69.317 -80.23 77.534 -76.688 Q85.752 -73.145 91.83 -67.072 Q97.909 -61 101.454 -52.79 Q105 -44.581 105 -35.247 Q105 -25.913 101.458 -17.695 Q97.915 -9.478 91.842 -3.4 Q85.77 2.679 77.56 6.224 Q69.351 9.77 60.017 9.77 Z M60 4.77 Q76.625 4.77 88.312 -6.917 Q100 -18.605 100 -35.23 Q100 -51.855 88.312 -63.542 Q76.625 -75.23 60 -75.23 Q43.375 -75.23 31.688 -63.542 Q20 -51.855 20 -35.23 Q20 -18.605 31.688 -6.917 Q43.375 4.77 60 4.77 Z M68.462 -41.98  71.058 -43.48 Q70.635 -40.961 72.279 -39.057 Q73.923 -37.153 76.538 -37.153 Q78.862 -37.153 80.489 -38.78 Q82.115 -40.406 82.115 -42.73 Q82.115 -44.413 81.192 -45.812 Q80.269 -47.211 78.673 -47.826 L82.788 -50.182 L80.865 -53.595 L66.538 -45.422 L68.462 -41.98 Z M51.538 -41.98  53.462 -45.422  39.135 -53.595  37.212 -50.182  41.327 -47.826 Q39.731 -47.211 38.808 -45.812 Q37.885 -44.413 37.885 -42.73 Q37.885 -40.406 39.511 -38.78 Q41.138 -37.153 43.462 -37.153 Q46.077 -37.153 47.721 -39.057 Q49.365 -40.961 48.942 -43.48 L51.538 -41.98 Z M60.021 -30.23 Q52.375 -30.23 46.538 -25.408 Q40.702 -20.586 38.144 -13.307 H81.856 Q79.298 -20.586 73.483 -25.408 Q67.667 -30.23 60.021 -30.23 Z"/></g><g id="Ultralight-M" transform="matrix(1 0 0 1 506.415 1126)"><path d="M60.022 8.27 Q51 8.27 43.055 4.846 Q35.11 1.422 29.233 -4.447 Q23.357 -10.317 19.928 -18.252 Q16.5 -26.186 16.5 -35.208 Q16.5 -44.23 19.924 -52.175 Q23.348 -60.12 29.217 -65.996 Q35.087 -71.873 43.022 -75.302 Q50.956 -78.73 59.978 -78.73 Q69 -78.73 76.945 -75.306 Q84.89 -71.882 90.766 -66.013 Q96.644 -60.143 100.072 -52.208 Q103.5 -44.273 103.5 -35.252 Q103.5 -26.23 100.076 -18.285 Q96.652 -10.34 90.783 -4.463 Q84.913 1.414 76.978 4.842 Q69.043 8.27 60.022 8.27 Z M60 4.77 Q76.625 4.77 88.312 -6.917 Q100 -18.605 100 -35.23 Q100 -51.855 88.312 -63.542 Q76.625 -75.23 60 -75.23 Q43.375 -75.23 31.688 -63.542 Q20 -51.855 20 -35.23 Q20 -18.605 31.688 -6.917 Q43.375 4.77 60 4.77 Z M68.75 -42.355  71.375 -43.855 Q70.75 -41.48 72.25 -39.605 Q73.75 -37.73 76.25 -37.73 Q78.333 -37.73 79.792 -39.188 Q81.25 -40.647 81.25 -42.73 Q81.25 -44.355 80.312 -45.667 Q79.375 -46.98 77.75 -47.48 L82.125 -49.98 L80.375 -53.105 L67 -45.48 L68.75 -42.355 Z M51.25 -42.355  53 -45.48  39.625 -53.105  37.875 -49.98  42.25 -47.48 Q40.625 -46.98 39.688 -45.667 Q38.75 -44.355 38.75 -42.73 Q38.75 -40.647 40.208 -39.188 Q41.667 -37.73 43.75 -37.73 Q46.25 -37.73 47.75 -39.605 Q49.25 -41.48 48.625 -43.855 L51.25 -42.355 Z M60.028 -30.23 Q52.75 -30.23 47.188 -25.667 Q41.625 -21.105 39.125 -14.23 H80.875 Q78.375 -21.105 72.84 -25.667 Q67.305 -30.23 60.028 -30.23 Z"/></g><g id="Bold-S" transform="matrix(1 0 0 1 2294.23 696)"><path d="M47.34 5.995 Q38.723 5.995 31.247 2.782 Q23.771 -0.432 18.156 -6.046 Q12.542 -11.661 9.328 -19.151 Q6.115 -26.641 6.115 -35.275 Q6.115 -43.909 9.328 -51.403 Q12.542 -58.898 18.156 -64.463 Q23.771 -70.028 31.261 -73.242 Q38.751 -76.455 47.385 -76.455 Q56.019 -76.455 63.514 -73.218 Q71.009 -69.981 76.553 -64.431 Q82.097 -58.882 85.331 -51.38 Q88.565 -43.877 88.565 -35.23 Q88.565 -26.613 85.352 -19.137 Q82.138 -11.661 76.573 -6.046 Q71.008 -0.432 63.5 2.782 Q55.993 5.995 47.34 5.995 Z M47.386 -5.642 Q59.664 -5.642 68.296 -14.272 Q76.928 -22.902 76.928 -35.277 Q76.928 -47.652 68.296 -56.235 Q59.665 -64.817 47.388 -64.817 Q35.111 -64.817 26.431 -56.235 Q17.753 -47.652 17.753 -35.277 Q17.753 -22.902 26.431 -14.272 Q35.109 -5.642 47.386 -5.642 Z M51.975 -38.879  53.356 -39.668 Q53.839 -37.428 55.519 -35.934 Q57.198 -34.441 59.57 -34.441 Q62.265 -34.441 64.073 -36.315 Q65.882 -38.189 65.882 -40.865 Q65.882 -42.199 65.29 -43.399 Q64.698 -44.599 63.613 -45.684 L66.671 -47.361 L63.416 -52.391 L48.721 -44.008 L51.975 -38.879 Z M42.606 -38.879  45.861 -44.008  31.166 -52.391  27.911 -47.361  31.067 -45.684 Q29.982 -44.647 29.341 -43.427 Q28.7 -42.207 28.7 -40.852 Q28.7 -38.189 30.574 -36.315 Q32.448 -34.441 35.159 -34.441 Q37.506 -34.441 39.168 -35.92 Q40.831 -37.4 41.324 -39.668 L42.606 -38.879 Z M47.415 -31.679 Q41.028 -31.679 36.343 -27.241 Q31.659 -22.803 31.067 -16.294 H63.613 Q63.219 -22.902 58.511 -27.291 Q53.803 -31.679 47.415 -31.679 Z"/></g><g id="Semibold-S" transform="matrix(1 0 0 1 1998.1 696)"><path d="M47.34 4.537 Q39.066 4.537 31.847 1.435 Q24.628 -1.668 19.203 -7.093 Q13.778 -12.518 10.675 -19.751 Q7.573 -26.984 7.573 -35.275 Q7.573 -43.566 10.675 -50.803 Q13.778 -58.041 19.203 -63.416 Q24.628 -68.792 31.861 -71.895 Q39.094 -74.997 47.385 -74.997 Q55.676 -74.997 62.914 -71.871 Q70.152 -68.745 75.507 -63.385 Q80.861 -58.025 83.984 -50.78 Q87.107 -43.534 87.107 -35.23 Q87.107 -26.956 84.005 -19.737 Q80.902 -12.518 75.526 -7.093 Q70.151 -1.668 62.901 1.435 Q55.65 4.537 47.34 4.537 Z M47.387 -5.128 Q59.878 -5.128 68.66 -13.929 Q77.442 -22.73 77.442 -35.277 Q77.442 -47.824 68.66 -56.578 Q59.879 -65.332 47.388 -65.332 Q34.896 -65.332 26.067 -56.578 Q17.238 -47.824 17.238 -35.277 Q17.238 -22.73 26.067 -13.929 Q34.895 -5.128 47.387 -5.128 Z M52.361 -39.094  53.956 -40.011 Q54.311 -37.771 55.953 -36.277 Q57.595 -34.784 59.913 -34.784 Q62.437 -34.784 64.159 -36.572 Q65.882 -38.36 65.882 -40.865 Q65.882 -42.214 65.268 -43.428 Q64.655 -44.642 63.527 -45.598 L66.671 -47.361 L63.716 -51.876 L49.407 -43.708 L52.361 -39.094 Z M42.22 -39.094  45.175 -43.708  30.865 -51.876  27.911 -47.361  31.153 -45.598 Q30.025 -44.69 29.362 -43.456 Q28.7 -42.222 28.7 -40.852 Q28.7 -38.36 30.488 -36.572 Q32.276 -34.784 34.816 -34.784 Q37.11 -34.784 38.734 -36.263 Q40.359 -37.743 40.724 -40.011 L42.22 -39.094 Z M47.415 -31.165 Q41.114 -31.165 36.429 -26.92 Q31.744 -22.675 30.938 -16.294 H63.742 Q63.133 -22.73 58.425 -26.948 Q53.717 -31.165 47.415 -31.165 Z"/></g><g id="Medium-S" transform="matrix(1 0 0 1 1701.85 696)"><path d="M47.34 3.444 Q39.323 3.444 32.296 0.424 Q25.27 -2.595 19.988 -7.878 Q14.705 -13.16 11.686 -20.201 Q8.666 -27.242 8.666 -35.275 Q8.666 -43.309 11.686 -50.354 Q14.705 -57.399 19.988 -62.632 Q25.27 -67.865 32.311 -70.884 Q39.352 -73.904 47.385 -73.904 Q55.419 -73.904 62.464 -70.861 Q69.51 -67.817 74.722 -62.6 Q79.933 -57.383 82.974 -50.33 Q86.014 -43.277 86.014 -35.23 Q86.014 -27.213 82.994 -20.186 Q79.975 -13.16 74.742 -7.878 Q69.509 -2.595 62.451 0.424 Q55.393 3.444 47.34 3.444 Z M47.387 -4.742 Q60.039 -4.742 68.933 -13.672 Q77.828 -22.602 77.828 -35.277 Q77.828 -47.952 68.934 -56.835 Q60.039 -65.718 47.387 -65.718 Q34.735 -65.718 25.794 -56.835 Q16.852 -47.952 16.852 -35.277 Q16.852 -22.602 25.793 -13.672 Q34.735 -4.742 47.387 -4.742 Z M52.651 -39.254  54.407 -40.268 Q54.665 -38.028 56.278 -36.535 Q57.892 -35.041 60.17 -35.041 Q62.565 -35.041 64.223 -36.765 Q65.882 -38.489 65.882 -40.865 Q65.882 -42.225 65.252 -43.45 Q64.623 -44.674 63.463 -45.534 L66.671 -47.361 L63.941 -51.49 L49.921 -43.482 L52.651 -39.254 Z M41.931 -39.254  44.66 -43.482  30.64 -51.49  27.911 -47.361  31.217 -45.534 Q30.057 -44.722 29.378 -43.478 Q28.7 -42.234 28.7 -40.852 Q28.7 -38.489 30.424 -36.765 Q32.148 -35.041 34.559 -35.041 Q36.813 -35.041 38.409 -36.521 Q40.005 -38 40.273 -40.268 L41.931 -39.254 Z M47.415 -30.779 Q41.178 -30.779 36.493 -26.679 Q31.809 -22.578 30.842 -16.294 H63.838 Q63.069 -22.602 58.361 -26.69 Q53.653 -30.779 47.415 -30.779 Z"/></g><g id="Regular-S" transform="matrix(1 0 0 1 1405.73 696)"><path d="M47.34 2.642 Q39.512 2.642 32.626 -0.317 Q25.741 -3.275 20.563 -8.453 Q15.386 -13.631 12.427 -20.531 Q9.468 -27.43 9.468 -35.275 Q9.468 -43.12 12.427 -50.024 Q15.386 -56.927 20.563 -62.056 Q25.741 -67.184 32.641 -70.143 Q39.54 -73.102 47.385 -73.102 Q55.23 -73.102 62.134 -70.12 Q69.039 -67.137 74.146 -62.024 Q79.253 -56.912 82.233 -50 Q85.212 -43.088 85.212 -35.23 Q85.212 -27.402 82.253 -20.516 Q79.294 -13.631 74.166 -8.453 Q69.038 -3.275 62.121 -0.317 Q55.204 2.642 47.34 2.642 Z M47.387 -4.459 Q60.157 -4.459 69.134 -13.483 Q78.111 -22.507 78.111 -35.277 Q78.111 -48.047 69.134 -57.024 Q60.157 -66.001 47.387 -66.001 Q34.617 -66.001 25.593 -57.024 Q16.569 -48.047 16.569 -35.277 Q16.569 -22.507 25.593 -13.483 Q34.617 -4.459 47.387 -4.459 Z M52.863 -39.372  54.737 -40.457 Q54.924 -38.217 56.517 -36.723 Q58.11 -35.23 60.358 -35.23 Q62.66 -35.23 64.271 -36.907 Q65.882 -38.583 65.882 -40.865 Q65.882 -42.234 65.24 -43.466 Q64.599 -44.698 63.416 -45.487 L66.671 -47.361 L64.106 -51.207 L50.299 -43.317 L52.863 -39.372 Z M41.718 -39.372  44.283 -43.317  30.475 -51.207  27.911 -47.361  31.264 -45.487 Q30.081 -44.745 29.39 -43.494 Q28.7 -42.242 28.7 -40.852 Q28.7 -38.583 30.377 -36.907 Q32.053 -35.23 34.37 -35.23 Q36.595 -35.23 38.17 -36.709 Q39.746 -38.189 39.943 -40.457 L41.718 -39.372 Z M47.415 -30.496 Q41.225 -30.496 36.541 -26.502 Q31.856 -22.507 30.771 -16.294 H63.909 Q63.021 -22.507 58.313 -26.502 Q53.605 -30.496 47.415 -30.496 Z"/></g><g id="Light-S" transform="matrix(1 0 0 1 1109.75 696)"><path d="M47.347 0.669 Q39.929 0.669 33.402 -2.134 Q26.875 -4.936 21.962 -9.847 Q17.049 -14.758 14.245 -21.296 Q11.441 -27.835 11.441 -35.269 Q11.441 -42.703 14.244 -49.248 Q17.046 -55.794 21.957 -60.657 Q26.868 -65.521 33.406 -68.325 Q39.945 -71.129 47.379 -71.129 Q54.813 -71.129 61.359 -68.303 Q67.905 -65.476 72.747 -60.631 Q77.59 -55.785 80.415 -49.235 Q83.239 -42.684 83.239 -35.237 Q83.239 -27.819 80.436 -21.292 Q77.634 -14.765 72.772 -9.852 Q67.911 -4.939 61.356 -2.135 Q54.8 0.669 47.347 0.669 Z M47.387 -4.459 Q60.157 -4.459 69.134 -13.483 Q78.111 -22.507 78.111 -35.277 Q78.111 -48.047 69.134 -57.024 Q60.157 -66.001 47.387 -66.001 Q34.617 -66.001 25.593 -57.024 Q16.569 -48.047 16.569 -35.277 Q16.569 -22.507 25.593 -13.483 Q34.617 -4.459 47.387 -4.459 Z M53.242 -39.865  55.154 -40.95 Q55.076 -38.9 56.479 -37.444 Q57.882 -35.989 59.979 -35.989 Q61.964 -35.989 63.354 -37.444 Q64.743 -38.899 64.743 -40.865 Q64.743 -42.158 64.083 -43.276 Q63.423 -44.395 62.202 -45.032 L65.798 -47.095 L63.461 -50.562 L50.906 -43.393 L53.242 -39.865 Z M41.339 -39.865  43.676 -43.393  31.12 -50.562  28.783 -47.095  32.478 -45.032 Q31.257 -44.442 30.547 -43.304 Q29.838 -42.166 29.838 -40.852 Q29.838 -38.899 31.293 -37.444 Q32.749 -35.989 34.75 -35.989 Q36.822 -35.989 38.208 -37.43 Q39.594 -38.872 39.526 -40.95 L41.339 -39.865 Z M47.424 -30.496 Q41.718 -30.496 37.394 -26.843 Q33.07 -23.19 32.061 -17.508 H62.619 Q61.807 -23.19 57.468 -26.843 Q53.129 -30.496 47.424 -30.496 Z"/></g><g id="Thin-S" transform="matrix(1 0 0 1 814.015 696)"><path d="M47.353 -1.303 Q40.346 -1.303 34.177 -3.95 Q28.008 -6.597 23.36 -11.241 Q18.712 -15.884 16.063 -22.061 Q13.413 -28.239 13.413 -35.262 Q13.413 -42.286 16.06 -48.473 Q18.707 -54.66 23.351 -59.259 Q27.994 -63.858 34.171 -66.507 Q40.349 -69.157 47.372 -69.157 Q54.396 -69.157 60.584 -66.486 Q66.772 -63.816 71.349 -59.237 Q75.927 -54.659 78.597 -48.47 Q81.267 -42.28 81.267 -35.243 Q81.267 -28.236 78.62 -22.067 Q75.973 -15.898 71.379 -11.25 Q66.785 -6.602 60.59 -3.953 Q54.396 -1.303 47.353 -1.303 Z M47.387 -4.459 Q60.157 -4.459 69.134 -13.483 Q78.111 -22.507 78.111 -35.277 Q78.111 -48.047 69.134 -57.024 Q60.157 -66.001 47.387 -66.001 Q34.617 -66.001 25.593 -57.024 Q16.569 -48.047 16.569 -35.277 Q16.569 -22.507 25.593 -13.483 Q34.617 -4.459 47.387 -4.459 Z M53.622 -40.358  55.571 -41.443 Q55.228 -39.583 56.441 -38.165 Q57.655 -36.747 59.6 -36.747 Q61.269 -36.747 62.437 -37.981 Q63.606 -39.215 63.606 -40.865 Q63.606 -42.082 62.927 -43.087 Q62.248 -44.091 60.988 -44.577 L64.926 -46.83 L62.817 -49.918 L51.513 -43.469 L53.622 -40.358 Z M40.96 -40.358  43.069 -43.469  31.765 -49.918  29.656 -46.83  33.692 -44.577 Q32.432 -44.138 31.704 -43.114 Q30.976 -42.091 30.976 -40.852 Q30.976 -39.215 32.21 -37.981 Q33.444 -36.747 35.129 -36.747 Q37.05 -36.747 38.246 -38.151 Q39.442 -39.554 39.109 -41.443 L40.96 -40.358 Z M47.432 -30.496 Q42.212 -30.496 38.248 -27.184 Q34.284 -23.873 33.35 -18.722 H61.33 Q60.594 -23.873 56.623 -27.184 Q52.653 -30.496 47.432 -30.496 Z"/></g><g id="Ultralight-S" transform="matrix(1 0 0 1 517.792 696)"><path d="M47.357 -2.486 Q40.596 -2.486 34.642 -5.04 Q28.688 -7.594 24.199 -12.077 Q19.71 -16.56 17.153 -22.52 Q14.597 -28.481 14.597 -35.258 Q14.597 -42.035 17.15 -48.008 Q19.704 -53.98 24.187 -58.42 Q28.67 -62.86 34.63 -65.417 Q40.591 -67.973 47.368 -67.973 Q54.145 -67.973 60.118 -65.396 Q66.091 -62.819 70.51 -58.401 Q74.929 -53.983 77.506 -48.01 Q80.084 -42.038 80.084 -35.247 Q80.084 -28.486 77.53 -22.532 Q74.976 -16.578 70.543 -12.089 Q66.109 -7.6 60.131 -5.043 Q54.154 -2.486 47.357 -2.486 Z M47.387 -4.459 Q60.157 -4.459 69.134 -13.483 Q78.111 -22.507 78.111 -35.277 Q78.111 -48.047 69.134 -57.024 Q60.157 -66.001 47.387 -66.001 Q34.617 -66.001 25.593 -57.024 Q16.569 -48.047 16.569 -35.277 Q16.569 -22.507 25.593 -13.483 Q34.617 -4.459 47.387 -4.459 Z M53.849 -40.654  55.822 -41.739 Q55.319 -39.992 56.418 -38.597 Q57.518 -37.202 59.372 -37.202 Q60.852 -37.202 61.887 -38.304 Q62.923 -39.405 62.923 -40.865 Q62.923 -42.037 62.232 -42.973 Q61.542 -43.909 60.26 -44.303 L64.402 -46.67 L62.43 -49.531 L51.877 -43.514 L53.849 -40.654 Z M40.732 -40.654  42.705 -43.514  32.152 -49.531  30.179 -46.67  34.42 -44.303 Q33.138 -43.956 32.398 -43.001 Q31.659 -42.045 31.659 -40.852 Q31.659 -39.405 32.76 -38.304 Q33.861 -37.202 35.356 -37.202 Q37.186 -37.202 38.269 -38.583 Q39.351 -39.964 38.858 -41.739 L40.732 -40.654 Z M47.437 -30.496 Q42.507 -30.496 38.76 -27.389 Q35.012 -24.283 34.124 -19.45 H60.556 Q59.865 -24.283 56.116 -27.389 Q52.367 -30.496 47.437 -30.496 Z"/></g></g></svg>